<?xml version="1.0" encoding="UTF-8"?>
<svg width="1440px" height="1363px" viewBox="0 0 1440 1363" version="1.1" xmlns="http://www.w3.org/2000/svg" xmlns:xlink="http://www.w3.org/1999/xlink">
    <!-- Generator: Sketch 63.1 (92452) - https://sketch.com -->
    <title>Path 4</title>
    <desc>Created with Sketch.</desc>
    <defs>
        <radialGradient cx="62.3511477%" cy="51.7440401%" fx="62.3511477%" fy="51.7440401%" r="57.2852634%" gradientTransform="translate(0.623511,0.517440),scale(1.000000,0.716183),rotate(-86.051828),translate(-0.623511,-0.517440)" id="radialGradient-1">
            <stop stop-color="#43A047" offset="0%"></stop>
            <stop stop-color="#53AA57" offset="20.1703648%"></stop>
            <stop stop-color="#81C784" offset="100%"></stop>
        </radialGradient>
        <path d="M1517.77175,1368.24864 C1597.26134,1361.80526 1549.71942,1454.0585 1593.93012,1505.58705 C1623.40392,1539.93942 1596.03574,1587.86772 1511.82558,1649.37195 C1571.49893,1682.2983 1601.3356,1704.85157 1601.3356,1717.03178 C1601.3356,1735.30209 1579.51791,1783.22938 1500.71111,1783.22938 C1448.17324,1783.22938 1434.72185,1766.02339 1460.35695,1731.61142 C1458.00328,1651.20411 1448.83679,1601.64809 1432.85746,1582.94335 C1419.58513,1567.40732 1048.66748,1267.89876 1296.63208,1236.95299 C1544.59668,1206.00722 1438.28215,1374.69202 1517.77175,1368.24864 Z" id="path-2"></path>
    </defs>
    <g id="001" stroke="none" stroke-width="1" fill="none" fill-rule="evenodd">
        <g id="Desktop-HD-1440" transform="translate(0.000000, -3741.000000)">
            <g id="7-Bg-shapes" transform="translate(-516.000000, 461.000000)">
                <g id="Path-4" transform="translate(397.000000, 3277.000000)">
                    <path d="M1559,956.226621 C1545.9708,736.648656 1468.02562,626.859674 1325.16444,626.859674 C1053.85963,626.859674 1030.00605,783.014303 818.520739,690.608115 C617.074362,602.588328 698.675634,324.385734 398.632549,271.754914 C383.680125,269.132096 367.779905,267.069475 350.849626,265.618506 C113.074946,245.240586 -3.84283259,156.701084 0.096291774,0 L0.096291774,1365.90625 L1559,1365.90625 L1559,956.226621 Z" fill="#F5F5F5" transform="translate(779.500000, 682.953125) scale(-1, 1) translate(-779.500000, -682.953125) "></path>
                    <mask id="mask-3" fill="white">
                        <use xlink:href="#path-2"></use>
                    </mask>
                    <use id="Mask" fill="url(#radialGradient-1)" transform="translate(1408.416318, 1508.193841) scale(-1, 1) rotate(-42.000000) translate(-1408.416318, -1508.193841) " xlink:href="#path-2"></use>
                </g>
            </g>
        </g>
    </g>
</svg>